<?xml version="1.0" encoding="UTF-8" standalone="no" ?>
<!DOCTYPE svg PUBLIC "-//W3C//DTD SVG 1.1//EN" "http://www.w3.org/Graphics/SVG/1.1/DTD/svg11.dtd">
<svg xmlns="http://www.w3.org/2000/svg" xmlns:xlink="http://www.w3.org/1999/xlink" version="1.1" width="600" height="250" viewBox="0 0 600 250" xml:space="preserve">
<desc>Created with Fabric.js 3.6.3</desc>
<defs>
</defs>
<rect x="0" y="0" width="100%" height="100%" fill="rgba(255, 255, 255, 0)"></rect>
<g transform="matrix(1.5 0 0 1.5 102.25 130.25)"  >
<linearGradient id="SVGID_5" gradientUnits="userSpaceOnUse" gradientTransform="matrix(1 0 0 1 -65 -65)"  x1="0" y1="0" x2="130" y2="130">
<stop offset="0%" style="stop-color:rgb(209,80,255);stop-opacity: 1"/>
<stop offset="100%" style="stop-color:rgb(0,0,255);stop-opacity: 1"/>
</linearGradient>
<circle style="stroke: none; stroke-width: 1; stroke-dasharray: none; stroke-linecap: butt; stroke-dashoffset: 0; stroke-linejoin: miter; stroke-miterlimit: 4; fill: url(#SVGID_5); fill-rule: nonzero; opacity: 1;"  cx="0" cy="0" r="65" />
</g>
<g transform="matrix(0.33 0 0 -0.33 134.84 123.43)" clip-path="url(#CLIPPATH_8)"  >
<clipPath id="CLIPPATH_8" >
	<path transform="matrix(1 0 0 1 0.32 -27.62) translate(-300, -300)" d="M 0 600 H 600 V 0 H 0 Z" stroke-linecap="round" />
</clipPath>
<path style="stroke: none; stroke-width: 1; stroke-dasharray: none; stroke-linecap: butt; stroke-dashoffset: 0; stroke-linejoin: miter; stroke-miterlimit: 4; fill: rgb(35,31,32); fill-rule: nonzero; opacity: 1;"  transform=" translate(-299.68, -327.62)" d="m 573.847 323.469 c -0.435 0.852 -0.872 1.704 -1.333 2.563 c -1.268 2.145 -2.415 4.438 -3.955 6.54 c -0.362 0.54 -0.731 1.092 -1.096 1.638 c -0.366 0.545 -0.729 1.085 -1.097 1.635 c -0.389 0.537 -0.799 1.063 -1.213 1.587 c -0.413 0.524 -0.833 1.047 -1.243 1.578 c -0.792 1.094 -1.678 2.121 -2.597 3.129 c -0.918 1.007 -1.87 1.998 -2.795 3.019 c -0.401 0.423 -0.83 0.817 -1.259 1.211 c -0.591 0.541 -1.191 1.076 -1.775 1.63 c -1.002 0.97 -2.035 1.909 -3.165 2.745 c -0.383 0.325 -0.779 0.638 -1.173 0.951 c -2.134 1.699 -4.411 3.235 -6.78 4.632 c -2.08 1.226 -4.227 2.35 -6.414 3.374 c -5.117 2.486 -10.585 4.245 -16.104 5.284 c -4.611 0.86 -9.243 1.453 -13.787 1.527 c -0.889 0.014 -1.776 0.015 -2.657 -0.013 c -1.266 -0.038 -2.522 -0.098 -3.767 -0.175 c -0.521 -0.032 -1.031 -0.082 -1.546 -0.121 c -3.495 -0.27 -6.899 -0.699 -10.139 -1.374 c -4.829 -1.094 -9.402 -2.299 -13.433 -3.948 c -1.035 -0.352 -2.009 -0.78 -2.956 -1.213 c -0.948 -0.433 -1.869 -0.872 -2.793 -1.247 c -1.758 -0.92 -3.484 -1.716 -5.009 -2.628 c -3.082 -1.777 -5.639 -3.578 -7.657 -5.154 c -0.689 -0.563 -1.307 -1.067 -1.891 -1.544 c -0.26 -0.212 -0.528 -0.432 -0.767 -0.627 c -0.415 -0.36 -0.78 -0.702 -1.113 -1.018 c -0.275 -0.263 -0.53 -0.508 -0.762 -0.722 c -1.012 -0.957 -1.55 -1.465 -1.55 -1.465 c 0 0 0.26 0.326 0.757 0.947 c 0.166 0.208 0.358 0.448 0.576 0.72 c 0.833 1.114 2.152 2.664 4.04 4.508 c 1.885 1.82 4.289 3.912 7.257 6.071 c 0.529 0.394 1.09 0.776 1.664 1.156 c 0.669 0.443 1.358 0.887 2.067 1.343 c 0.377 0.242 0.756 0.488 1.139 0.742 c 0.402 0.215 0.808 0.442 1.217 0.67 c 1.432 0.801 2.914 1.649 4.529 2.355 c 4.062 2.033 8.724 3.662 13.751 5.047 c 1.981 0.522 4.045 0.952 6.147 1.328 c 1.72 0.308 3.468 0.575 5.254 0.775 c 1.589 0.178 3.194 0.324 4.826 0.411 c 5.708 0.331 11.667 -0.043 17.603 -1.126 c 5.936 -1.059 11.863 -2.892 17.431 -5.512 c 4.444 -2.127 8.725 -4.641 12.614 -7.589 c 0.96 -0.727 1.902 -1.473 2.809 -2.255 c 3.465 -2.86 6.581 -6.038 9.335 -9.377 c 0.95 -1.152 1.859 -2.322 2.723 -3.506 c 0.835 -1.158 1.701 -2.285 2.486 -3.44 c 0.727 -1.197 1.452 -2.382 2.165 -3.555 c 1.143 -1.76 2.041 -3.61 2.934 -5.416 c 0.274 -0.555 0.549 -1.107 0.829 -1.649 c 0.538 -1.126 1.043 -2.245 1.524 -3.356 c 1.07 -2.471 1.996 -4.898 2.794 -7.263 c 0.338 -1.002 0.66 -1.997 0.951 -2.973 c 0.732 -2.134 1.295 -4.21 1.734 -6.213 c 0.165 -0.751 0.339 -1.477 0.51 -2.193 c 0.284 -1.194 0.558 -2.35 0.755 -3.47 c 0.102 -0.64 0.204 -1.245 0.308 -1.853 c 0.372 -2.203 0.727 -4.2 0.979 -5.986 c 0.069 -0.493 0.141 -0.989 0.191 -1.449 c 0.259 -2.51 0.445 -4.492 0.568 -5.875 c 0.132 -1.469 0.193 -2.259 0.193 -2.259 v -0.002 c 0 0 -0.71 2.896 -1.817 7.943 c -0.079 0.366 -0.182 0.764 -0.277 1.149 c -0.298 1.216 -0.657 2.532 -1.056 3.944 c -0.347 1.23 -0.713 2.514 -1.081 3.891 c -0.493 1.723 -1.186 3.509 -1.82 5.41 c -0.523 1.572 -1.072 3.211 -1.741 4.871 c -0.141 0.345 -0.278 0.69 -0.43 1.037 c -1.269 3.286 -2.831 6.711 -4.612 10.205 m -10.099 37.601 c -55.015 50.596 -124.13 -3.382 -124.418 -23.785 c 15.352 -22.791 51.438 -17.602 51.438 -17.602 c 1.469 -15.994 28.998 -52.723 57.856 -49.787 c -29.273 14.213 -50.436 65.583 -17.659 59.342 c 21.307 -4.059 53.414 -45.736 46.111 -80.901 c 0 0 44.402 59.636 -13.328 112.733 M 482.801 108.154 c 2.472 0.68 4.842 1.329 7.099 1.948 c 2.248 0.651 4.338 1.411 6.33 2.046 c 1.987 0.657 3.847 1.273 5.57 1.841 c 1.717 0.578 3.241 1.252 4.648 1.783 c 5.606 2.193 8.86 3.378 8.86 3.378 c 0 0 -3.035 -1.626 -8.432 -4.362 c -1.359 -0.659 -2.832 -1.472 -4.5 -2.206 c -1.674 -0.727 -3.483 -1.514 -5.419 -2.353 c -1.945 -0.821 -3.987 -1.774 -6.194 -2.638 c -2.243 -0.783 -4.598 -1.61 -7.059 -2.471 c -1.235 -0.419 -2.483 -0.886 -3.777 -1.292 c -1.313 -0.358 -2.647 -0.726 -4.006 -1.099 c -2.734 -0.673 -5.509 -1.62 -8.482 -2.095 c -2.958 -0.52 -5.977 -1.204 -9.112 -1.631 c -3.149 -0.321 -6.369 -0.727 -9.663 -0.895 c -6.588 -0.173 -13.484 -0.17 -20.366 1.134 c -6.925 0.99 -13.751 3.252 -20.3 6.034 c -1.63 0.732 -3.227 1.529 -4.79 2.381 c -4.688 2.558 -9.076 5.616 -13.164 8.908 c -4.084 3.32 -7.652 7.094 -10.88 10.988 c -1.075 1.298 -2.113 2.608 -3.119 3.92 c -4.045 5.259 -7.11 10.897 -9.791 16.289 c -2.689 5.407 -4.56 10.802 -6.132 15.793 c -1.534 5.013 -2.498 9.724 -3.165 13.916 c -0.587 4.206 -0.963 7.883 -0.959 10.934 c -0.025 0.76 -0.022 1.48 0 2.158 c 0.066 2.032 0.308 3.683 0.502 4.885 c 0.347 1.581 0.627 2.4 0.627 2.4 c 0 0 -0.177 -0.852 -0.333 -2.455 c -0.087 -1.602 -0.061 -3.949 0.271 -6.926 c 0.26 -2.976 0.956 -6.556 1.894 -10.602 c 1.028 -4.031 2.391 -8.517 4.148 -13.305 c 0.232 -0.594 0.468 -1.193 0.71 -1.796 c 1.692 -4.225 3.643 -8.677 6.089 -13.137 c 2.465 -4.441 5.239 -8.995 8.534 -13.355 c 0.471 -0.623 0.953 -1.241 1.446 -1.855 c 3.941 -4.897 8.425 -9.622 13.532 -13.745 c 5.145 -4.051 10.75 -7.712 16.851 -10.375 c 6.085 -2.628 12.425 -4.83 18.938 -5.812 c 6.461 -1.23 12.981 -1.549 19.293 -1.526 c 3.155 0.052 6.255 0.423 9.302 0.555 c 3.039 0.268 5.992 0.797 8.884 1.165 c 2.908 0.312 5.645 1.14 8.355 1.634 c 1.349 0.277 2.679 0.548 3.98 0.816 c 1.292 0.316 2.543 0.693 3.78 1.025 m -47.494 34.507 c -30.411 25.924 61.429 37.495 68.651 29.053 c -9.229 27.757 -67.613 31.726 -88.515 17.114 c 0 0 -29.116 39.837 -63.53 36.951 c -19.764 -16.342 -18.208 -126.163 74.606 -140.638 c 91.085 -14.208 126.12 76.587 126.12 76.587 c -45.311 -43.094 -96.589 -36.75 -117.332 -19.067 m -52.516 101.65 c -12.929 -4.939 24.045 -38.979 73.93 -11.762 c -14.98 16.127 -55.079 18.964 -73.93 11.762 m -90.481 27.676 c -14.086 -14.517 -42.514 -24.43 -55.945 -22.008 c 8.279 -42.752 53.327 -97.25 60.289 -124.94 c 2.536 32.03 -33.163 74.837 -33.649 107.257 c 16.72 7.533 39.56 18.464 57.272 21.443 c -16.016 1.3 -25.118 13.764 -27.967 18.248 m 50.923 5.765 c -0.093 -0.379 -0.187 -0.745 -0.278 -1.102 c -0.254 -0.995 -0.481 -1.896 -0.599 -2.671 c -0.127 -0.633 -0.215 -1.192 -0.281 -1.673 c -0.044 -0.325 -0.079 -0.62 -0.101 -0.857 c -0.07 -0.593 -0.109 -0.907 -0.109 -0.907 c 0 0 -0.066 0.312 -0.19 0.894 c -0.117 0.584 -0.347 1.423 -0.408 2.559 c -0.139 1.142 -0.167 2.509 -0.109 4.083 c 0.075 1.577 0.245 3.351 0.595 5.262 c 0.077 0.414 0.161 0.84 0.248 1.267 c 0.313 1.539 0.699 3.155 1.219 4.805 c 0.648 2.112 1.37 4.344 2.333 6.548 c 0.695 1.663 1.43 3.361 2.251 5.047 c 0.273 0.562 0.556 1.123 0.85 1.681 c 1.176 2.227 2.425 4.456 3.743 6.643 c 1.363 2.164 2.789 4.282 4.246 6.331 c 0.76 1.104 1.57 2.155 2.388 3.179 c 0.716 0.897 1.44 1.774 2.144 2.639 c 3.079 3.667 6.235 6.867 9.193 9.341 c 0.736 0.622 1.461 1.199 2.168 1.727 c 2.121 1.586 4.076 2.739 5.665 3.399 c 1.056 0.458 1.967 0.606 2.568 0.681 c 0.204 -0.008 0.363 -0.016 0.501 -0.022 c 0.272 -0.011 0.426 -0.018 0.426 -0.018 c 0 0 -0.008 -0.002 -0.008 -0.002 c 0 0 0.008 -0.001 0.008 -0.001 c 0 0 -0.297 -0.083 -0.857 -0.252 c -0.536 -0.238 -1.246 -0.685 -2.088 -1.335 c -1.06 -0.848 -2.291 -2.062 -3.652 -3.554 c -0.787 -0.865 -1.619 -1.822 -2.485 -2.858 c -1.142 -1.453 -2.375 -3.023 -3.679 -4.69 c -1.288 -1.678 -2.553 -3.524 -3.914 -5.381 c -1.351 -1.873 -2.629 -3.887 -4 -5.884 c -0.541 -0.801 -1.071 -1.622 -1.599 -2.444 c -0.793 -1.236 -1.575 -2.483 -2.335 -3.746 c -1.321 -2.07 -2.573 -4.18 -3.755 -6.288 c -0.287 -0.529 -0.578 -1.054 -0.87 -1.576 c -0.876 -1.566 -1.753 -3.099 -2.51 -4.643 c -2.1 -4.08 -3.86 -7.978 -5.154 -11.415 c -0.614 -1.725 -1.155 -3.322 -1.565 -4.767 m -4.519 70.945 c -1.159 -0.802 -2.402 -1.767 -3.716 -2.861 c -2.592 -2.258 -5.344 -5.168 -8.059 -8.502 c -0.853 -1.004 -1.657 -2.092 -2.467 -3.195 c -0.51 -0.695 -1.022 -1.395 -1.553 -2.089 c -1.317 -1.843 -2.623 -3.749 -3.836 -5.714 c -1.29 -1.916 -2.479 -3.908 -3.626 -5.878 c -1.111 -1.986 -2.285 -3.911 -3.281 -5.846 c -0.49 -0.923 -0.966 -1.834 -1.427 -2.732 c -1.456 -2.84 -2.752 -5.534 -3.798 -7.967 c -0.232 -0.548 -0.448 -1.077 -0.658 -1.596 c -0.583 -1.449 -1.076 -2.783 -1.455 -3.966 c -0.279 -0.875 -0.5 -1.674 -0.648 -2.374 c -0.03 -0.171 -0.055 -0.325 -0.081 -0.482 c -0.121 -0.756 -0.193 -1.359 -0.184 -1.824 c 0.001 -0.006 0 -0.013 0 -0.018 c 0.036 -0.281 0.064 -0.497 0.083 -0.643 c 0.019 -0.144 0.029 -0.218 0.029 -0.218 v -0.003 c 0 0 -0.021 0.043 -0.053 0.104 c -0.061 0.116 -0.174 0.333 -0.345 0.666 c -0.194 0.528 -0.449 1.4 -0.54 2.473 c -0.187 2.164 0.055 5.265 0.849 8.837 c 0.138 0.635 0.295 1.291 0.463 1.955 c 0.306 1.209 0.66 2.456 1.093 3.733 c 0.134 0.402 0.272 0.812 0.412 1.222 c 0.548 1.609 1.151 3.267 1.89 4.922 c 0.672 1.536 1.365 3.115 2.142 4.681 c 0.276 0.556 0.561 1.11 0.861 1.66 c 0.728 1.334 1.489 2.671 2.271 4 c 0.448 0.761 0.893 1.523 1.368 2.271 c 0.73 1.114 1.484 2.214 2.256 3.295 c 0.703 0.983 1.424 1.947 2.163 2.886 c 1.417 1.802 2.899 3.513 4.449 5.075 c 0.5 0.538 1.017 1.046 1.54 1.541 c 0.743 0.704 1.499 1.373 2.255 2.004 c 0.378 0.316 0.754 0.626 1.127 0.928 c 0.604 0.494 1.215 0.945 1.826 1.377 c 1.052 0.744 2.103 1.412 3.114 2.007 c 0.496 0.262 0.977 0.516 1.45 0.764 c 0.307 0.161 0.612 0.322 0.907 0.477 c 0.787 0.323 1.53 0.629 2.227 0.913 c 0.927 0.32 1.772 0.573 2.548 0.76 c 0.424 0.102 0.834 0.191 1.211 0.248 c 0.861 0.203 1.586 0.219 2.133 0.242 c 0.116 0.005 0.234 0.01 0.331 0.018 c 0.565 0.027 0.864 0.041 0.864 0.041 l -0.004 -0.001 h 0.004 c 0 0 -0.278 -0.116 -0.802 -0.333 c -0.104 -0.044 -0.224 -0.093 -0.346 -0.144 c -0.488 -0.203 -1.108 -0.471 -1.833 -0.868 c -0.928 -0.426 -1.967 -1.115 -3.154 -1.846 m -36.356 11.053 c -0.04 -0.013 -0.087 -0.03 -0.129 -0.043 c -0.454 -0.151 -1.042 -0.353 -1.737 -0.8 c -0.382 -0.226 -0.802 -0.444 -1.243 -0.725 c -0.425 -0.314 -0.888 -0.653 -1.383 -1.014 c -0.791 -0.517 -1.575 -1.278 -2.442 -2.019 c -0.228 -0.195 -0.459 -0.391 -0.701 -0.579 c -0.142 -0.146 -0.293 -0.291 -0.44 -0.436 c -0.949 -0.939 -1.99 -1.863 -2.995 -2.969 c -1.207 -1.215 -2.38 -2.591 -3.615 -3.987 c -0.586 -0.629 -1.132 -1.311 -1.676 -2.008 c -0.635 -0.815 -1.267 -1.649 -1.947 -2.451 c -0.268 -0.386 -0.547 -0.767 -0.83 -1.147 c -0.892 -1.2 -1.828 -2.383 -2.62 -3.668 l -1.671 -2.454 c -0.512 -0.84 -1.018 -1.685 -1.518 -2.52 c -1.069 -1.641 -1.913 -3.353 -2.821 -4.979 c -0.564 -1.105 -1.071 -2.19 -1.575 -3.254 c -0.252 -0.533 -0.503 -1.071 -0.761 -1.585 c -0.614 -1.588 -1.212 -3.095 -1.798 -4.495 c -0.173 -0.521 -0.337 -1.022 -0.497 -1.512 c -0.273 -0.836 -0.536 -1.64 -0.771 -2.367 c -0.439 -1.154 -0.601 -2.285 -0.842 -3.159 c -0.103 -0.41 -0.198 -0.774 -0.283 -1.1 c -0.168 -0.641 -0.298 -1.104 -0.377 -1.381 c -0.056 -0.194 -0.088 -0.305 -0.088 -0.305 c 0 0 -0.037 0.248 -0.096 0.704 c -0.063 0.488 -0.152 1.216 -0.25 2.157 c -0.023 0.443 -0.09 0.927 -0.138 1.452 c -0.053 0.564 -0.084 1.177 -0.017 1.85 c 0.023 0.454 0.044 0.942 0.068 1.445 c 0.042 0.922 0.099 1.911 0.223 2.956 c 0.279 1.564 0.553 3.289 0.989 5.082 c 0.556 1.739 1.012 3.652 1.796 5.498 c 0.299 0.659 0.58 1.342 0.867 2.029 c 0.211 0.509 0.433 1.016 0.664 1.524 c 0.317 0.7 0.651 1.395 1.05 2.062 c 0.512 0.92 1.023 1.852 1.537 2.788 l 1.757 2.67 c 0.824 1.292 1.771 2.49 2.721 3.669 c 0.378 0.47 0.755 0.938 1.126 1.407 c 1.397 1.571 2.796 3.09 4.269 4.448 c 0.975 0.958 1.98 1.829 2.992 2.636 c 0.471 0.375 0.943 0.741 1.413 1.086 c 1.4 1.174 2.97 2.02 4.302 2.88 c 1.458 0.739 2.704 1.484 3.993 1.888 c 0.431 0.155 0.829 0.303 1.216 0.439 c 0.172 0.061 0.347 0.125 0.512 0.178 c 0.437 0.102 0.845 0.176 1.227 0.247 c 0.109 0.02 0.227 0.041 0.329 0.062 c 0.101 0.027 0.194 0.035 0.291 0.053 c 0.616 0.119 1.161 0.099 1.579 0.067 c 0.111 -0.007 0.223 -0.016 0.315 -0.02 c 0.485 -0.033 0.746 -0.053 0.746 -0.053 l -0.002 -0.001 h 0.002 c 0 0 -0.152 -0.052 -0.434 -0.148 c -0.084 -0.029 -0.178 -0.061 -0.287 -0.098 m -36.39 7.188 c -0.243 -0.094 -0.51 -0.211 -0.796 -0.396 c -0.408 -0.258 -0.871 -0.506 -1.359 -0.821 c -0.254 -0.165 -0.513 -0.343 -0.78 -0.561 c -0.015 -0.011 -0.032 -0.024 -0.047 -0.035 c -0.372 -0.261 -0.752 -0.554 -1.143 -0.874 c -0.046 -0.038 -0.093 -0.077 -0.139 -0.115 c -0.326 -0.269 -0.662 -0.561 -1.005 -0.862 c -0.072 -0.063 -0.141 -0.123 -0.213 -0.187 c -0.232 -0.182 -0.459 -0.383 -0.686 -0.596 c -0.46 -0.432 -0.919 -0.912 -1.404 -1.384 c -0.236 -0.23 -0.479 -0.458 -0.73 -0.678 c -0.927 -1.033 -1.955 -2.041 -2.935 -3.179 c -0.526 -0.566 -1.034 -1.166 -1.537 -1.78 c -0.474 -0.578 -0.945 -1.171 -1.423 -1.767 c -0.263 -0.307 -0.502 -0.638 -0.752 -0.959 c -0.347 -0.447 -0.701 -0.888 -1.04 -1.347 c -0.361 -0.491 -0.72 -0.985 -1.096 -1.468 c -0.298 -0.443 -0.607 -0.882 -0.913 -1.321 c -0.601 -0.863 -1.199 -1.726 -1.738 -2.607 c -0.802 -1.335 -1.706 -2.598 -2.355 -3.936 c -0.312 -0.546 -0.598 -1.086 -0.878 -1.624 c -0.165 -0.317 -0.32 -0.63 -0.476 -0.944 c -0.206 -0.418 -0.417 -0.836 -0.606 -1.248 c -0.637 -1.228 -1.031 -2.441 -1.52 -3.561 c -0.506 -1.13 -0.705 -2.14 -1.05 -3.09 c -0.015 -0.043 -0.028 -0.084 -0.042 -0.126 c -0.138 -0.395 -0.257 -0.783 -0.354 -1.153 c -0.012 -0.046 -0.023 -0.09 -0.035 -0.136 c -0.101 -0.403 -0.183 -0.79 -0.241 -1.139 c -0.312 -1.459 -0.539 -2.299 -0.539 -2.299 c 0 0 -0.001 0.005 -0.001 0.006 l -0.001 -0.003 c 0 0 -0.232 0.832 -0.55 2.296 c -0.09 0.387 -0.184 0.824 -0.25 1.309 c -0.058 0.421 -0.096 0.878 -0.086 1.385 c -0.005 1.055 -0.156 2.371 0.076 3.642 c 0.176 1.299 0.252 2.774 0.715 4.209 c 0.311 1.237 0.656 2.541 1.161 3.821 c 0.093 0.236 0.182 0.474 0.288 0.709 c 0.31 0.819 0.665 1.634 1.049 2.444 c 0.342 0.722 0.707 1.442 1.098 2.158 c 0.209 0.403 0.434 0.798 0.669 1.188 c 0.66 1.099 1.399 2.158 2.104 3.24 c 0.39 0.486 0.768 0.98 1.147 1.473 c 0.683 0.891 1.373 1.773 2.155 2.56 c 0.985 1.147 2.079 2.154 3.161 3.119 c 0.15 0.135 0.302 0.271 0.451 0.404 c 1.174 1.139 2.534 2.006 3.727 2.906 c 1.266 0.787 2.409 1.562 3.623 2.085 c 0.026 0.012 0.052 0.027 0.078 0.038 c 0.598 0.279 1.171 0.55 1.718 0.803 c 0.549 0.172 1.063 0.337 1.554 0.494 c 0.033 0.01 0.071 0.022 0.103 0.032 c 0.051 0.02 0.1 0.029 0.15 0.047 c 0.282 0.099 0.56 0.173 0.836 0.23 c 0.65 0.133 1.27 0.184 1.771 0.261 c 0.745 0.149 1.413 -0.082 1.794 -0.085 c 0.145 -0.019 0.256 -0.034 0.35 -0.046 c 0.164 -0.021 0.259 -0.032 0.259 -0.032 c 0 0 -0.005 -0.002 -0.006 -0.002 c 0.001 0 0.006 -0.001 0.006 -0.001 c 0 0 -0.204 -0.074 -0.587 -0.219 c -0.199 -0.095 -0.448 -0.171 -0.73 -0.278 m -34.593 4.77 c -0.084 -0.04 -0.169 -0.08 -0.258 -0.122 c -0.262 -0.153 -0.546 -0.361 -0.848 -0.577 c -0.212 -0.151 -0.431 -0.305 -0.665 -0.448 c -0.268 -0.228 -0.557 -0.472 -0.861 -0.728 c -0.289 -0.243 -0.591 -0.497 -0.907 -0.763 c -0.597 -0.642 -1.265 -1.235 -1.924 -1.956 c -0.657 -0.731 -1.371 -1.431 -2.048 -2.26 c -0.715 -0.78 -1.4 -1.632 -2.114 -2.492 c -0.729 -0.832 -1.389 -1.759 -2.102 -2.633 c -0.678 -0.904 -1.354 -1.807 -2.016 -2.695 c -0.329 -0.492 -0.676 -0.97 -1.016 -1.444 c -0.292 -0.41 -0.579 -0.817 -0.83 -1.229 c -0.35 -0.504 -0.67 -0.998 -0.975 -1.487 c -0.224 -0.361 -0.442 -0.719 -0.645 -1.071 c -0.552 -0.821 -0.889 -1.615 -1.33 -2.362 c -0.328 -0.765 -0.632 -1.472 -0.901 -2.098 c -0.051 -0.228 -0.122 -0.452 -0.192 -0.676 c -0.105 -0.339 -0.211 -0.673 -0.277 -0.99 c -0.016 -0.952 -0.063 -1.556 -0.075 -1.702 c -0.001 -0.023 -0.003 -0.037 -0.003 -0.037 c 0 0 -0.385 0.512 -0.969 1.435 c -0.193 0.513 -0.408 1.23 -0.581 2.114 c -0.056 0.797 -0.146 1.739 -0.054 2.732 c 0.14 0.956 0.199 2.089 0.546 3.134 c 0.284 1.088 0.655 2.212 1.153 3.301 c 0.206 0.495 0.441 0.986 0.686 1.474 c 0.858 1.714 1.93 3.38 3.114 4.964 c 0.826 0.968 1.574 1.992 2.494 2.849 c 0.286 0.299 0.584 0.576 0.88 0.858 c 0.325 0.309 0.655 0.606 0.992 0.893 c 0.287 0.244 0.57 0.496 0.863 0.722 c 0.905 0.775 1.922 1.393 2.853 1.979 c 0.937 0.584 1.966 0.981 2.832 1.383 c 0.947 0.328 1.808 0.59 2.6 0.734 c 0.823 0.105 1.512 0.166 2.082 0.149 c 1.19 -0.178 1.761 -0.344 1.761 -0.344 c 0 0 -0.509 -0.253 -1.265 -0.607 M 365.541 247.519 c 0 0 50.166 26.344 101.533 -8.145 c 12.942 8.538 12.076 11.958 12.029 21.557 c 0 0 -48.267 16.52 -55.863 61.79 c -13.401 8.217 -18.267 18.591 -38.792 19.393 c -8.928 11.035 -20.947 15.488 -37.222 16.629 c -9.58 7.395 -29.156 9.754 -40.965 8.05 c -7.486 4.639 -13.309 6.169 -19.099 6.753 c 4.726 3.249 14.789 4.313 22.603 0.45 l -39.371 53.128 c 8.844 1.784 9.035 -15.113 22.877 -17.209 c 0 0 8.562 4.683 26.427 -1.689 c -18.398 16.5 -58.704 31.577 -58.704 31.577 c 9.381 -16.571 17.789 -48.108 15.102 -65.757 c -1.568 0.048 -3.196 0.126 -4.914 0.255 c -20.212 8.124 -30.02 5.473 -36.766 3.808 c -36.585 21.297 -64.633 13.944 -78.844 25.894 c 0 0 9.165 -35.569 33.482 -56.05 c -39.075 19.369 -47.606 53.864 -47.606 53.864 c -12.726 -2.521 -36.793 -3.04 -50.073 10.733 c 7.035 -49.628 56.744 -78.861 106.252 -70.73 c 2.271 -1.353 4.637 -2.586 7.124 -3.635 c -0.839 -4.593 9.978 -19.283 25.407 -18.478 c 2.31 -7.264 10.579 -23.545 29.704 -20.011 c 0 0 12.22 -22.202 35.856 -21.882 c 0 0 21.317 -26.801 43.008 -18.684 c 7.231 -5.959 4.527 -14.938 26.815 -11.611 m -48.058 125.544 c 11.21 3.679 20.863 -1.168 29.788 -6.633 c -4.38 22.38 -10.89 43.124 -18.876 62.737 c 6.807 2.328 7.774 -19.078 14.101 -20.528 c 13.81 1.447 19.209 -12.45 28.911 -16.928 c -17.914 17.857 -21.186 37.149 -48.293 49.864 c 3.602 -23.427 6.638 -51.573 -5.631 -68.512 M 91.636 548.061 c 33.165 3.547 64.776 -17.341 82.909 -41.617 c -6.01 -6.173 -7.653 -16.671 -4.143 -23.912 c 13.315 -27.478 53.843 -27.315 69.844 7.772 c -21.44 -23.553 -39.398 -14.083 -40.727 -9.166 c -2.164 8.007 12.9 19.839 -0.238 26.806 c -8.601 4.563 -15.558 4.346 -20.67 1.584 c -11.132 24.529 -33.062 54.596 -79.539 61.445 c -21.819 3.213 -43.208 -6.51 -51.227 -15.752 c 16.604 5.587 30.384 0.592 43.791 -7.16 M 482.413 269.307 c -6.274 36.394 -36.04 49.095 -49.623 45.916 c 3.545 -14.345 22.679 -40.702 49.623 -45.916 m -271.494 -5.055 c 23.985 5.081 32.089 17.61 56.017 14.523 c -17.136 5.757 -24.863 16.138 -26.21 20.541 c -19.339 -14.929 -45.412 -28.086 -56.366 -22.334 c 2.95 -45.912 34.554 -89.448 40.308 -124.449 c 4.797 23.387 -19.309 73.696 -13.749 111.719 m 152.762 99.65 c 16.778 -3.431 23.602 -10.429 34.397 -18.986 l -6.995 45.33 c 17.771 -2.115 31.748 -31.337 45.265 -32.123 c -15.237 13.819 -19.551 36.805 -49.265 61.954 c 0.345 -17.57 -2.63 -46.322 -23.402 -56.175 M 45.426 516.545 c 10.443 15.56 28.145 27.801 44.996 30.022 c -18.162 4.926 -43.387 8.608 -64.052 -7.366 c -17.495 -13.528 -29.396 -46.422 -11.587 -73.42 c -2.797 26.227 16.286 46.398 30.643 50.764 m 122.32 -211.076 c 12.876 4.702 37.993 3.079 57.132 7.641 c -13.724 1.096 -22.948 9.973 -22.415 18.338 c 0 0 -35.39 -16.846 -56.101 0.584 c -8.882 -19.067 16.313 -109.278 23.782 -125.733 c -2.522 31.35 -13.156 87.949 -2.398 99.17 M 85.863 421.1 c -14.435 11.876 -23.373 22.429 -27.954 37.291 c -5.523 -16.684 -5.668 -35.762 0.005 -51.75 c -11.503 19.888 -15.261 43.5 -7.024 61.168 c -9.009 15.613 -14.47 30.529 -6.078 45.074 c -28.99 -18.629 -40.754 -90.308 13.477 -107.308 c 6.849 -18.29 21.485 -32.296 44.648 -33.573 c -11.32 13.994 -22.331 37.892 -17.074 49.098" stroke-linecap="round" />
</g>
<g transform="matrix(1 0 0 1 408.5 167.92)" style=""  >
		<text xml:space="preserve" font-family="Impact, Charcoal, sans-serif" font-size="68" font-style="italic" font-weight="bold" style="stroke: none; stroke-width: 1; stroke-dasharray: none; stroke-linecap: butt; stroke-dashoffset: 0; stroke-linejoin: miter; stroke-miterlimit: 4; fill: rgb(46,40,164); fill-rule: nonzero; opacity: 1; white-space: pre;" ><tspan x="-185" y="21.36" >S</tspan><tspan x="-131.64" y="21.36" >C</tspan><tspan x="-74.54" y="21.36" >O</tspan><tspan x="-13.64" y="21.36" >R</tspan><tspan x="43.46" y="21.36" >P</tspan><tspan x="96.82" y="21.36" >I</tspan><tspan x="123.71" y="21.36" >O</tspan></text>
</g>
</svg>